<svg xmlns="http://www.w3.org/2000/svg" width="2682.667" height="429.333" viewBox="0 0 2012 322"><path d="M956 .6c-63.2 5.8-107.8 32.1-130.3 76.9-16.8 33.6-20.4 82.3-9.2 126C824.3 233.8 837 257 857 277c20.6 20.6 44.5 33.3 75 39.8 41.3 8.9 89.9 3.4 126.6-14.3 28.8-13.9 54.2-39.4 67.3-67.6 12.5-26.9 17.3-58.2 14-91.5-7-71.7-47.3-120.5-113.4-137.3-14.2-3.6-27.5-5.1-47-5.5-10.4-.2-21-.2-23.5 0m33.3 110.9c21.1 4.4 33.4 20.2 35.3 45 1.6 19.7-6.5 38.1-20.1 46-14.3 8.4-35.9 9.3-51.1 2.1-12.5-5.9-20.6-16.3-24.4-31.2-4.8-18.8-.9-37.2 10.4-49.3 11.2-11.8 30.6-16.7 49.9-12.6M675 3.6c-35.1 3.3-58.2 12.2-74 28.3-15.9 16.3-23 36.8-23 66 .1 26.1 5.9 41.5 22.5 58.9 10.2 10.7 23.2 19.4 41.4 27.7 23.5 10.7 33 17 37.1 24.8 2.2 4.1 2.3 4.8 1.1 8.7-1.5 4.9-7.3 9.1-15.3 11.1-15 3.6-42.5-2.4-76.2-16.5l-10.9-4.6.6 51.1c.3 28.1.7 51.2.9 51.4.5.6 26.9 4.2 40.8 5.7 18.9 1.9 61.7 1.6 76.3-.5 52.1-7.8 82.5-28.8 95-65.7 3-9 3.2-10.2 3.1-24-.1-11.6-.5-16.1-2.3-22.5-4.2-15.5-11.5-28-22.4-38.2-8.4-7.8-12.4-10.5-27.7-18.8-6.9-3.7-14.1-7.9-16-9.3-6.3-4.7-13-11.4-13-13 0-.8-.3-1.2-.7-.9-.7.8-3.9-3.4-3.5-4.6.1-.4-.2-.7-.7-.7-.4 0-.9-3.3-1-7.3-.3-12.6 4.4-16.7 18.9-16.7 10.1 0 21.7 2.3 47.3 9.5 11 3 20.3 5.5 20.8 5.5s.9-19.6.9-46.9V15.3l-19.7-3.2C727.1 4.4 695.4 1.7 675 3.6M0 162.5V318h264v-94H122.9l.3-9.3.3-9.2 63.3-.3 63.2-.2v-80H123v-18h141V7H0zM293 162.5V318h241v-99H400V7H293zM1157 160v153h238v-98h-133V7h-105zM1508.7 7.7c-.6.9-97.7 304-97.7 304.8 0 .3 27.8.4 61.8.3l61.7-.3 7.6-22.5 7.6-22.5 25.4-.3 25.4-.2 8 22.7 8 22.8 55.3.3c52.4.2 55.3.1 54.8-1.5-.3-1-19.7-69.1-43.1-151.3S1640.7 9.7 1640.4 8.7c-.5-1.6-4.5-1.7-65.9-1.7-36 0-65.6.3-65.8.7m75.6 160.1c5.9 16.3 10.7 30.3 10.7 30.9 0 1-4.9 1.3-21.1 1.3-19.6 0-21.1-.1-20.6-1.8 2.3-8.6 19.2-60.2 19.6-60.2s5.4 13.4 11.4 29.8M1743 160v153l54.8-.2 54.7-.3.5-39.5.5-39.4L1880 273l26.5 39.5 52.4.3c41.7.2 52.2 0 51.8-1-.3-.7-15.2-23.1-33.1-49.7s-32.4-48.6-32.2-48.8c.2-.3 4.7-1.9 9.9-3.7 13.6-4.7 22.7-10.4 32.7-20.5 9.6-9.8 14.1-16.7 18.2-28.3 5.7-16 7.1-33.5 4.2-52.7-7.9-54-48-87.3-117.4-97.5-20.2-3-36.7-3.6-93.1-3.6H1743zm135.9-51.1c7.8 2.4 12.8 6.2 15.2 11.5 2.3 5 2.3 7.7.3 14.5-1.9 6.7-7.6 12.3-15.2 15.1-6 2.3-20.9 3.8-25.6 2.6l-2.6-.6v-45h10.9c7.9 0 12.6.5 17 1.9"/></svg>