<svg xmlns="http://www.w3.org/2000/svg" width="2682.667" height="429.333" viewBox="0 0 2012 322"><path d="M956 .6c-21.5 2-43 6.7-57.3 12.3-57.8 23-88.6 70.9-88.7 137.7 0 81.2 40.6 142.3 108.2 162.8 18.8 5.7 30.1 7.1 55.8 7 24.6 0 33.8-1.1 53.5-6.4 27.2-7.2 49.3-19.3 68.1-37.2 23.8-22.8 37.6-50.2 43.6-86.3.8-4.8 1.3-16.1 1.2-28.5 0-16.7-.4-22.9-2.3-33.3-12.4-70.7-58-115-129.7-126.3C998.8.9 965.2-.2 956 .6m33.1 110.8c18.8 4 30.6 16.9 34.5 37.6 2.9 15.1.5 30-6.7 41.1-7.9 12.3-22.3 19.2-40.4 19.2-15.3.1-26.8-4.5-35.9-14.4-18.2-19.6-18.2-54.7-.1-71.8 11.9-11.3 30-15.6 48.6-11.7M669 4c-52.4 5.5-81.5 28.8-89.6 71.6-2.4 13-1.6 39.1 1.6 48.9 4 12.5 9.6 22 18.9 31.7 10.8 11.4 23.4 19.8 43 28.8 18.1 8.2 31.1 16.5 34.9 22.2 5.4 8.3 2.6 15.1-8.2 20-4.5 2-6.6 2.3-17.6 2.2-10.3 0-14.4-.5-23-2.8-11.4-3-29.9-9.5-43-15.1l-8.3-3.6.5 51.1c.4 28.1.8 51.3 1 51.5.6.6 17.9 3.1 35.3 5.1 21.6 2.6 66.5 2.5 83 0 34.1-5.2 55.4-14.5 72.5-31.6 13-13 18.5-22.9 23.2-41.3 1.7-6.9 2-10.1 1.5-20.2-1-21.4-8-39.2-21-53.1-8.4-9-15.4-14.1-30.7-22.4-13.7-7.4-22.3-13.4-26.8-18.7-1.8-2.1-3.8-4.5-4.6-5.3-.7-.8-1.6-2.3-1.9-3.3-.4-.9-1-1.7-1.5-1.7-1.7 0-1.4-13.7.3-17 2.4-4.7 8.3-7 17.8-7 9.7 0 22 2.5 48.2 9.9l20.5 5.8V15.3l-22.7-3.7C728.4 4.5 690.9 1.7 669 4M0 162.5V318h264v-94l-70.2-.2-70.3-.3v-18l63.3-.3 63.2-.2v-80H123v-18h141V7H0zM293 162.5V318h241v-99H400V7H293zM1157 160v153h238v-98h-133V7h-105zM1508 9.4c-1.4 3.8-97 302.3-97 303 0 .3 27.8.5 61.8.4l61.7-.3 7.6-22.5 7.6-22.5 25.4-.3 25.4-.2 6.8 19.7c3.8 10.9 7.5 21.3 8.2 23l1.4 3.3h55.1c30.2 0 55-.2 55-.5s-71.4-251-85.6-300.3l-1.5-5.2H1509zm76.4 159c5.8 16 10.6 29.6 10.6 30.3 0 1-4.4 1.3-21.1 1.3-16.5 0-21-.3-20.7-1.3.2-.6 4.7-14.6 9.8-31 5.2-16.3 9.7-29.4 10.1-29 .4.5 5.5 13.8 11.3 29.7M1743 160v153h110l.2-39.6.3-39.5 24 35.7c13.2 19.7 25.2 37.5 26.8 39.6l2.7 3.8h52.1c45.6 0 52-.2 51.5-1.5-.3-.8-14.9-22.8-32.5-48.8-17.6-26.1-32.1-47.9-32.3-48.6-.2-.6 4-2.6 9.4-4.4 27.9-9.7 47.2-30.4 53.8-58 4.2-17.3 3.6-40.5-1.6-58.6-14.5-50.7-59.9-79-136.8-85.1-7.1-.5-38.7-1-70.2-1H1743zm138.3-50.5c10.7 3.9 16.1 12.9 13.8 23.1-2.8 12.3-16.3 20.4-33.9 20.4-11.1 0-10.2 2.1-10.2-23.7v-22.5l12.8.5c8.5.3 14.3 1 17.5 2.2"/></svg>